<svg width="291" height="221" viewBox="0 0 291 221" fill="none" xmlns="http://www.w3.org/2000/svg">
<path fill-rule="evenodd" clip-rule="evenodd" d="M0.135962 215.362C0.138836 219.915 5.73028 222.095 8.81431 218.746L13.644 213.5C36.4616 193.659 41.5636 181.691 54.8244 167.833C55.0348 167.613 55.2283 167.372 55.3971 167.119C73.9449 139.305 103.196 117.92 127.644 108.5C153.644 101 163.644 100.5 190.144 93.5C200.644 90.7264 202.144 90.5 210.644 87.5C219.144 84.5 218.644 84.5 230.5 76.5L262.144 52.5L272.32 42.8089C272.535 42.6034 272.732 42.379 272.908 42.1383L281.772 30.0084C282.019 29.6708 282.223 29.3036 282.378 28.9153L287.939 15.0114C288.075 14.6715 288.174 14.3177 288.232 13.9563L290.5 0C286.678 0 278.025 0 290.5 0C265.941 0 245.203 0 220.644 0C196.085 0 171.915 0 147.356 0C122.797 0 98.2373 0 73.678 0C49.1186 0 24.5593 0 12.0847 0H5.00316C2.2405 0 0.00141447 2.2405 0.00315858 5.00316L0.135962 215.362Z" fill="#0C3B62"/>
</svg>
