<svg width="833" height="332" viewBox="0 0 833 332" fill="none" xmlns="http://www.w3.org/2000/svg">
<path fill-rule="evenodd" clip-rule="evenodd" d="M0 192.601V290.531C0 292.087 0.721148 293.558 1.97017 294.486C57.4342 335.706 138.841 344.123 251.5 312.5C331.5 293 386.5 275.5 466 263.5C544.816 248.214 653.922 264.5 737.922 241.5C831.422 221 880.922 131 913.422 73.5L941.121 6.92059C942.491 3.62748 940.071 0 936.504 0H904.592C865.184 0 786.368 0 708.448 0C629.632 0 550.816 0 472 0C393.184 0 314.368 0 236.448 0C157.632 0 78.8159 0 39.408 0H5C2.23858 0 0 2.23858 0 5V192.601Z" fill="#0C3B62"/>
</svg>
