<svg width="733" height="236" viewBox="0 0 733 236" fill="none" xmlns="http://www.w3.org/2000/svg">
<path fill-rule="evenodd" clip-rule="evenodd" d="M20.2578 183.5C70.4999 224 76.6703 251.534 138.5 224C202.5 195.5 253.466 150.246 311 128.5C371.726 115.283 429.466 100.5 487 100.5C535.5 100.5 591 87 646 72L672 62L695.5 47.5L715.5 26L732.5 0H616.662C587.895 0 530.36 0 472.826 0C415.291 0 357.757 0 300.223 0C242.688 0 185.153 0 127.619 0C70.0845 0 77.7924 0 20.258 0C49.0252 0 -37.2764 0 20.258 0L20.2578 61.2525V183.5Z" fill="white"/>
</svg>
